<svg xmlns="http://www.w3.org/2000/svg" width="800" height="800" viewBox="0 0 800 800" role="img" aria-labelledby="title desc">
<title id="title">Maya demo profile image</title>
<desc id="desc">Original illustrated placeholder portrait for books, old cinemas, quiet jokes.</desc>
<defs>
  <linearGradient id="g" x1="0" x2="1" y1="0" y2="1"><stop offset="0" stop-color="#ff7aa2"/><stop offset="1" stop-color="#8b5cf6"/></linearGradient>
  <radialGradient id="r" cx="50%" cy="26%" r="70%"><stop offset="0" stop-color="#fff7ed" stop-opacity=".72"/><stop offset="1" stop-color="#111827" stop-opacity="0"/></radialGradient>
  <filter id="shadow" x="-20%" y="-20%" width="140%" height="140%"><feDropShadow dx="0" dy="18" stdDeviation="18" flood-color="#020617" flood-opacity=".25"/></filter>
</defs>
<rect width="800" height="800" rx="160" fill="url(#g)"/>
<rect width="800" height="800" rx="160" fill="url(#r)"/>
<circle cx="660" cy="125" r="92" fill="#fff" opacity=".18"/>
<circle cx="105" cy="655" r="150" fill="#000" opacity=".12"/>
<g filter="url(#shadow)">
  <circle cx="400" cy="310" r="124" fill="#3b241c"/>
  <circle cx="400" cy="340" r="112" fill="#f0bd8a"/>
  <path d="M265 314c10-100 66-164 146-164 92 0 151 74 137 180-74-58-176-60-283-16z" fill="#2f1d19"/>
  <path d="M290 395c48 102 174 112 226 0 16 114-34 211-118 211-78 0-127-90-108-211z" fill="#f0bd8a"/>
  <circle cx="356" cy="344" r="12" fill="#20120f"/>
  <circle cx="444" cy="344" r="12" fill="#20120f"/>
  <path d="M362 408c28 26 56 26 86 0" fill="none" stroke="#7c2d12" stroke-width="12" stroke-linecap="round"/>
  <path d="M278 618c34-70 80-106 122-106 43 0 90 37 124 106v72H278z" fill="#111827" opacity=".72"/>
  <circle cx="400" cy="628" r="70" fill="#fff" opacity=".12"/>
  <text x="400" y="658" text-anchor="middle" font-family="Inter,Arial,sans-serif" font-size="92" font-weight="800" fill="#fff">M</text>
</g>
</svg>