<svg xmlns="http://www.w3.org/2000/svg" width="1200" height="800" viewBox="0 0 1200 800" role="img" aria-labelledby="title desc">
<title id="title">Central Library demo venue image</title>
<desc id="desc">Original illustrated placeholder of library lamps and reading tables.</desc>
<defs><linearGradient id="g" x1="0" x2="1" y1="0" y2="1"><stop stop-color="#5b4bff"/><stop offset="1" stop-color="#22c55e"/></linearGradient><radialGradient id="r" cx="25%" cy="15%" r="75%"><stop stop-color="#fff7ed" stop-opacity=".35"/><stop offset="1" stop-color="#020617" stop-opacity="0"/></radialGradient></defs>
<rect width="1200" height="800" rx="72" fill="url(#g)"/>
<rect width="1200" height="800" rx="72" fill="url(#r)"/>
<path d="M0 590c180-70 282-58 404-18 146 48 290 44 440-20 128-55 230-50 356 18v230H0z" fill="#020617" opacity=".18"/>
<g opacity=".9">
<rect x="155" y="220" width="890" height="420" rx="36" fill="#fff" opacity=".12"/>
<rect x="210" y="290" width="170" height="255" rx="22" fill="#fff" opacity=".18"/>
<rect x="420" y="290" width="170" height="255" rx="22" fill="#fff" opacity=".14"/>
<rect x="630" y="290" width="170" height="255" rx="22" fill="#fff" opacity=".18"/>
<rect x="840" y="290" width="150" height="255" rx="22" fill="#fff" opacity=".13"/>
<circle cx="310" cy="210" r="34" fill="#fff" opacity=".24"/>
<circle cx="890" cy="205" r="42" fill="#fff" opacity=".20"/>
</g>
<text x="600" y="198" text-anchor="middle" font-family="Inter,Arial,sans-serif" font-size="76" font-weight="900" fill="#fff" opacity=".94">📚</text>
<text x="600" y="705" text-anchor="middle" font-family="Inter,Arial,sans-serif" font-size="54" font-weight="850" fill="#fff">Central Library</text>
</svg>